<mxfile host="app.diagrams.net" agent="Mozilla/5.0 (Windows NT 10.0; Win64; x64) AppleWebKit/537.36 (KHTML, like Gecko) Chrome/140.0.0.0 Safari/537.36" version="28.2.3">
  <diagram name="Página-1" id="H4r4B2JsdCDVrjLWaR6o">
    <mxGraphModel dx="1042" dy="527" grid="1" gridSize="10" guides="1" tooltips="1" connect="1" arrows="1" fold="1" page="1" pageScale="1" pageWidth="827" pageHeight="1169" math="0" shadow="0">
      <root>
        <mxCell id="0" />
        <mxCell id="1" parent="0" />
        <mxCell id="riOq776ICpYBMlTKr23R-16" style="edgeStyle=orthogonalEdgeStyle;rounded=0;orthogonalLoop=1;jettySize=auto;html=1;exitX=0.5;exitY=0.5;exitDx=0;exitDy=0;exitPerimeter=0;entryX=0;entryY=0.5;entryDx=0;entryDy=0;endArrow=none;endFill=0;" edge="1" parent="1" source="riOq776ICpYBMlTKr23R-1" target="riOq776ICpYBMlTKr23R-7">
          <mxGeometry relative="1" as="geometry" />
        </mxCell>
        <mxCell id="riOq776ICpYBMlTKr23R-1" value="Usuários" style="shape=umlActor;verticalLabelPosition=bottom;verticalAlign=top;html=1;outlineConnect=0;" vertex="1" parent="1">
          <mxGeometry x="200" y="25" width="30" height="60" as="geometry" />
        </mxCell>
        <mxCell id="riOq776ICpYBMlTKr23R-2" value="Secretaria" style="shape=umlActor;verticalLabelPosition=bottom;verticalAlign=top;html=1;outlineConnect=0;" vertex="1" parent="1">
          <mxGeometry x="90" y="170" width="30" height="60" as="geometry" />
        </mxCell>
        <mxCell id="riOq776ICpYBMlTKr23R-3" value="Alunos" style="shape=umlActor;verticalLabelPosition=bottom;verticalAlign=top;html=1;outlineConnect=0;" vertex="1" parent="1">
          <mxGeometry x="280" y="170" width="30" height="60" as="geometry" />
        </mxCell>
        <mxCell id="riOq776ICpYBMlTKr23R-4" value="Professores" style="shape=umlActor;verticalLabelPosition=bottom;verticalAlign=top;html=1;outlineConnect=0;" vertex="1" parent="1">
          <mxGeometry x="540" y="170" width="30" height="60" as="geometry" />
        </mxCell>
        <mxCell id="riOq776ICpYBMlTKr23R-7" value="Fazer Login" style="ellipse;whiteSpace=wrap;html=1;" vertex="1" parent="1">
          <mxGeometry x="414" y="30" width="120" height="50" as="geometry" />
        </mxCell>
        <mxCell id="riOq776ICpYBMlTKr23R-8" value="Recuperar&lt;div&gt;Senha&lt;/div&gt;" style="ellipse;whiteSpace=wrap;html=1;" vertex="1" parent="1">
          <mxGeometry x="640" y="10" width="120" height="50" as="geometry" />
        </mxCell>
        <mxCell id="riOq776ICpYBMlTKr23R-9" value="Fazer logout" style="ellipse;whiteSpace=wrap;html=1;" vertex="1" parent="1">
          <mxGeometry x="640" y="70" width="120" height="50" as="geometry" />
        </mxCell>
        <mxCell id="riOq776ICpYBMlTKr23R-10" value="" style="endArrow=classic;html=1;rounded=0;dashed=1;exitX=0.98;exitY=0.352;exitDx=0;exitDy=0;exitPerimeter=0;entryX=0;entryY=0.5;entryDx=0;entryDy=0;" edge="1" parent="1" source="riOq776ICpYBMlTKr23R-7" target="riOq776ICpYBMlTKr23R-8">
          <mxGeometry width="50" height="50" relative="1" as="geometry">
            <mxPoint x="390" y="300" as="sourcePoint" />
            <mxPoint x="440" y="250" as="targetPoint" />
          </mxGeometry>
        </mxCell>
        <mxCell id="riOq776ICpYBMlTKr23R-11" value="&amp;lt;&amp;lt;Extends&amp;gt;&amp;gt;" style="edgeLabel;html=1;align=center;verticalAlign=middle;resizable=0;points=[];" vertex="1" connectable="0" parent="riOq776ICpYBMlTKr23R-10">
          <mxGeometry x="-0.1629" y="3" relative="1" as="geometry">
            <mxPoint x="1" as="offset" />
          </mxGeometry>
        </mxCell>
        <mxCell id="riOq776ICpYBMlTKr23R-12" value="" style="endArrow=classic;html=1;rounded=0;dashed=1;exitX=0.927;exitY=0.848;exitDx=0;exitDy=0;exitPerimeter=0;entryX=0;entryY=0.5;entryDx=0;entryDy=0;" edge="1" parent="1" source="riOq776ICpYBMlTKr23R-7" target="riOq776ICpYBMlTKr23R-9">
          <mxGeometry width="50" height="50" relative="1" as="geometry">
            <mxPoint x="400" y="273" as="sourcePoint" />
            <mxPoint x="508" y="260" as="targetPoint" />
          </mxGeometry>
        </mxCell>
        <mxCell id="riOq776ICpYBMlTKr23R-13" value="&amp;lt;&amp;lt;Extends&amp;gt;&amp;gt;" style="edgeLabel;html=1;align=center;verticalAlign=middle;resizable=0;points=[];" vertex="1" connectable="0" parent="riOq776ICpYBMlTKr23R-12">
          <mxGeometry x="-0.1629" y="3" relative="1" as="geometry">
            <mxPoint x="1" as="offset" />
          </mxGeometry>
        </mxCell>
        <mxCell id="riOq776ICpYBMlTKr23R-15" value="" style="endArrow=none;html=1;rounded=0;entryX=0;entryY=0.5;entryDx=0;entryDy=0;" edge="1" parent="1" target="riOq776ICpYBMlTKr23R-40">
          <mxGeometry width="50" height="50" relative="1" as="geometry">
            <mxPoint x="580" y="220" as="sourcePoint" />
            <mxPoint x="520" y="410" as="targetPoint" />
          </mxGeometry>
        </mxCell>
        <mxCell id="riOq776ICpYBMlTKr23R-17" value="" style="endArrow=block;html=1;rounded=0;endFill=0;" edge="1" parent="1" target="riOq776ICpYBMlTKr23R-1">
          <mxGeometry width="50" height="50" relative="1" as="geometry">
            <mxPoint x="120" y="160" as="sourcePoint" />
            <mxPoint x="180" y="100" as="targetPoint" />
          </mxGeometry>
        </mxCell>
        <mxCell id="riOq776ICpYBMlTKr23R-18" value="" style="endArrow=block;html=1;rounded=0;endFill=0;" edge="1" parent="1">
          <mxGeometry width="50" height="50" relative="1" as="geometry">
            <mxPoint x="270" y="160" as="sourcePoint" />
            <mxPoint x="230" y="110" as="targetPoint" />
          </mxGeometry>
        </mxCell>
        <mxCell id="riOq776ICpYBMlTKr23R-19" value="" style="endArrow=block;html=1;rounded=0;endFill=0;" edge="1" parent="1" source="riOq776ICpYBMlTKr23R-4">
          <mxGeometry width="50" height="50" relative="1" as="geometry">
            <mxPoint x="340" y="150" as="sourcePoint" />
            <mxPoint x="250" y="80" as="targetPoint" />
          </mxGeometry>
        </mxCell>
        <mxCell id="riOq776ICpYBMlTKr23R-25" value="Gerenciar&lt;div&gt;Alunos&lt;/div&gt;" style="ellipse;whiteSpace=wrap;html=1;" vertex="1" parent="1">
          <mxGeometry x="10" y="330" width="120" height="50" as="geometry" />
        </mxCell>
        <mxCell id="riOq776ICpYBMlTKr23R-26" value="Realizar&lt;div&gt;Matrícula&lt;/div&gt;" style="ellipse;whiteSpace=wrap;html=1;" vertex="1" parent="1">
          <mxGeometry x="170" y="300" width="120" height="50" as="geometry" />
        </mxCell>
        <mxCell id="riOq776ICpYBMlTKr23R-27" value="" style="endArrow=none;html=1;rounded=0;exitX=0.25;exitY=0;exitDx=0;exitDy=0;exitPerimeter=0;" edge="1" parent="1" source="riOq776ICpYBMlTKr23R-25">
          <mxGeometry width="50" height="50" relative="1" as="geometry">
            <mxPoint x="50" y="310" as="sourcePoint" />
            <mxPoint x="80" y="250" as="targetPoint" />
          </mxGeometry>
        </mxCell>
        <mxCell id="riOq776ICpYBMlTKr23R-28" value="" style="endArrow=none;html=1;rounded=0;exitX=0.047;exitY=0.232;exitDx=0;exitDy=0;exitPerimeter=0;" edge="1" parent="1" source="riOq776ICpYBMlTKr23R-26">
          <mxGeometry width="50" height="50" relative="1" as="geometry">
            <mxPoint x="180" y="320" as="sourcePoint" />
            <mxPoint x="130" y="260" as="targetPoint" />
          </mxGeometry>
        </mxCell>
        <mxCell id="riOq776ICpYBMlTKr23R-29" value="" style="endArrow=none;html=1;rounded=0;exitX=0.75;exitY=0;exitDx=0;exitDy=0;exitPerimeter=0;" edge="1" parent="1" source="riOq776ICpYBMlTKr23R-26">
          <mxGeometry width="50" height="50" relative="1" as="geometry">
            <mxPoint x="350" y="340" as="sourcePoint" />
            <mxPoint x="280" y="250" as="targetPoint" />
          </mxGeometry>
        </mxCell>
        <mxCell id="riOq776ICpYBMlTKr23R-30" value="Solicitar&lt;div&gt;Transferência&lt;/div&gt;" style="ellipse;whiteSpace=wrap;html=1;" vertex="1" parent="1">
          <mxGeometry x="235" y="370" width="120" height="50" as="geometry" />
        </mxCell>
        <mxCell id="riOq776ICpYBMlTKr23R-32" value="" style="endArrow=none;html=1;rounded=0;exitX=0.572;exitY=-0.016;exitDx=0;exitDy=0;exitPerimeter=0;" edge="1" parent="1" source="riOq776ICpYBMlTKr23R-30">
          <mxGeometry width="50" height="50" relative="1" as="geometry">
            <mxPoint x="570" y="360" as="sourcePoint" />
            <mxPoint x="304" y="260" as="targetPoint" />
          </mxGeometry>
        </mxCell>
        <mxCell id="riOq776ICpYBMlTKr23R-33" value="Solicitar&lt;div&gt;Históricos&lt;/div&gt;" style="ellipse;whiteSpace=wrap;html=1;" vertex="1" parent="1">
          <mxGeometry x="340" y="300" width="120" height="50" as="geometry" />
        </mxCell>
        <mxCell id="riOq776ICpYBMlTKr23R-34" value="" style="endArrow=none;html=1;rounded=0;exitX=0.333;exitY=0;exitDx=0;exitDy=0;exitPerimeter=0;" edge="1" parent="1" source="riOq776ICpYBMlTKr23R-33">
          <mxGeometry width="50" height="50" relative="1" as="geometry">
            <mxPoint x="590" y="370" as="sourcePoint" />
            <mxPoint x="330" y="230" as="targetPoint" />
          </mxGeometry>
        </mxCell>
        <mxCell id="riOq776ICpYBMlTKr23R-35" value="" style="endArrow=classic;html=1;rounded=0;dashed=1;exitX=0.767;exitY=0.128;exitDx=0;exitDy=0;entryX=0;entryY=1;entryDx=0;entryDy=0;exitPerimeter=0;" edge="1" parent="1" source="riOq776ICpYBMlTKr23R-37" target="riOq776ICpYBMlTKr23R-30">
          <mxGeometry width="50" height="50" relative="1" as="geometry">
            <mxPoint x="420" y="500" as="sourcePoint" />
            <mxPoint x="535" y="523" as="targetPoint" />
          </mxGeometry>
        </mxCell>
        <mxCell id="riOq776ICpYBMlTKr23R-36" value="&amp;lt;&amp;lt;Include&amp;gt;&amp;gt;" style="edgeLabel;html=1;align=center;verticalAlign=middle;resizable=0;points=[];" vertex="1" connectable="0" parent="riOq776ICpYBMlTKr23R-35">
          <mxGeometry x="-0.1629" y="3" relative="1" as="geometry">
            <mxPoint x="1" as="offset" />
          </mxGeometry>
        </mxCell>
        <mxCell id="riOq776ICpYBMlTKr23R-37" value="Aprovar&lt;div&gt;Transferência&lt;/div&gt;" style="ellipse;whiteSpace=wrap;html=1;" vertex="1" parent="1">
          <mxGeometry x="110" y="450" width="120" height="50" as="geometry" />
        </mxCell>
        <mxCell id="riOq776ICpYBMlTKr23R-38" value="" style="endArrow=none;html=1;rounded=0;exitX=0.5;exitY=0;exitDx=0;exitDy=0;" edge="1" parent="1" source="riOq776ICpYBMlTKr23R-37">
          <mxGeometry width="50" height="50" relative="1" as="geometry">
            <mxPoint x="720" y="350" as="sourcePoint" />
            <mxPoint x="110" y="260" as="targetPoint" />
          </mxGeometry>
        </mxCell>
        <mxCell id="riOq776ICpYBMlTKr23R-39" value="Gerenciar&lt;div&gt;Notas&lt;/div&gt;" style="ellipse;whiteSpace=wrap;html=1;" vertex="1" parent="1">
          <mxGeometry x="650" y="170" width="120" height="50" as="geometry" />
        </mxCell>
        <mxCell id="riOq776ICpYBMlTKr23R-40" value="Gerenciar&lt;div&gt;Frequências&lt;/div&gt;" style="ellipse;whiteSpace=wrap;html=1;" vertex="1" parent="1">
          <mxGeometry x="650" y="260" width="120" height="50" as="geometry" />
        </mxCell>
        <mxCell id="riOq776ICpYBMlTKr23R-41" value="" style="endArrow=none;html=1;rounded=0;entryX=0;entryY=0.5;entryDx=0;entryDy=0;" edge="1" parent="1" target="riOq776ICpYBMlTKr23R-39">
          <mxGeometry width="50" height="50" relative="1" as="geometry">
            <mxPoint x="580" y="200" as="sourcePoint" />
            <mxPoint x="650" y="420" as="targetPoint" />
          </mxGeometry>
        </mxCell>
        <mxCell id="riOq776ICpYBMlTKr23R-42" value="Consultar" style="ellipse;whiteSpace=wrap;html=1;" vertex="1" parent="1">
          <mxGeometry x="495" y="340" width="120" height="50" as="geometry" />
        </mxCell>
        <mxCell id="riOq776ICpYBMlTKr23R-43" value="" style="endArrow=none;html=1;rounded=0;exitX=0.558;exitY=-0.072;exitDx=0;exitDy=0;exitPerimeter=0;" edge="1" parent="1" source="riOq776ICpYBMlTKr23R-42">
          <mxGeometry width="50" height="50" relative="1" as="geometry">
            <mxPoint x="510" y="295" as="sourcePoint" />
            <mxPoint x="560" y="250" as="targetPoint" />
          </mxGeometry>
        </mxCell>
        <mxCell id="riOq776ICpYBMlTKr23R-44" value="" style="endArrow=none;html=1;rounded=0;entryX=0.092;entryY=0.2;entryDx=0;entryDy=0;entryPerimeter=0;" edge="1" parent="1" target="riOq776ICpYBMlTKr23R-42">
          <mxGeometry width="50" height="50" relative="1" as="geometry">
            <mxPoint x="330" y="202.5" as="sourcePoint" />
            <mxPoint x="510" y="340" as="targetPoint" />
          </mxGeometry>
        </mxCell>
        <mxCell id="riOq776ICpYBMlTKr23R-45" value="Frequências" style="ellipse;whiteSpace=wrap;html=1;" vertex="1" parent="1">
          <mxGeometry x="580" y="430" width="120" height="50" as="geometry" />
        </mxCell>
        <mxCell id="riOq776ICpYBMlTKr23R-46" value="Notas" style="ellipse;whiteSpace=wrap;html=1;" vertex="1" parent="1">
          <mxGeometry x="400" y="430" width="120" height="50" as="geometry" />
        </mxCell>
        <mxCell id="riOq776ICpYBMlTKr23R-47" value="" style="endArrow=block;html=1;rounded=0;endFill=0;exitX=0.333;exitY=0;exitDx=0;exitDy=0;exitPerimeter=0;entryX=0.765;entryY=1;entryDx=0;entryDy=0;entryPerimeter=0;" edge="1" parent="1" source="riOq776ICpYBMlTKr23R-45" target="riOq776ICpYBMlTKr23R-42">
          <mxGeometry width="50" height="50" relative="1" as="geometry">
            <mxPoint x="680" y="420" as="sourcePoint" />
            <mxPoint x="640" y="370" as="targetPoint" />
          </mxGeometry>
        </mxCell>
        <mxCell id="riOq776ICpYBMlTKr23R-48" value="" style="endArrow=block;html=1;rounded=0;endFill=0;entryX=0.245;entryY=1;entryDx=0;entryDy=0;entryPerimeter=0;exitX=0.667;exitY=0;exitDx=0;exitDy=0;exitPerimeter=0;" edge="1" parent="1" source="riOq776ICpYBMlTKr23R-46" target="riOq776ICpYBMlTKr23R-42">
          <mxGeometry width="50" height="50" relative="1" as="geometry">
            <mxPoint x="740" y="560" as="sourcePoint" />
            <mxPoint x="700" y="510" as="targetPoint" />
          </mxGeometry>
        </mxCell>
      </root>
    </mxGraphModel>
  </diagram>
</mxfile>
